<?xml version="1.0" encoding="UTF-8"?>
<svg width="415px" height="273px" viewBox="0 0 415 273" version="1.1" xmlns="http://www.w3.org/2000/svg" xmlns:xlink="http://www.w3.org/1999/xlink">
    <!-- Generator: Sketch 44.1 (41455) - http://www.bohemiancoding.com/sketch -->
    <title>Page 1</title>
    <desc>Created with Sketch.</desc>
    <defs>
        <polygon id="path-1" points="0.000484845918 0.291994648 298.639704 0.291994648 298.639704 172.386807 0.000484845918 172.386807 0.000484845918 0.291994648"></polygon>
    </defs>
    <g id="Page-1" stroke="none" stroke-width="1" fill="none" fill-rule="evenodd">
        <g id="Desktop-HD-Copy" transform="translate(-173.000000, -235.000000)">
            <g id="Page-1" transform="translate(173.000000, 235.000000)">
                <path d="M232.835831,66.8571309 C232.835831,66.8571309 233.74334,69.4813915 236.670947,66.9572566 C239.59694,64.4347366 242.826512,60.1955464 241.615422,58.1768845 C240.404333,56.1582225 237.47834,56.5619549 235.761823,59.791814 C234.04692,63.0216732 232.128554,64.0310042 232.835831,66.8571309" id="Fill-1" fill="#FFFFFF"></path>
                <g id="Group-5" transform="translate(0.000000, 0.553921)">
                    <mask id="mask-2" fill="white">
                        <use xlink:href="#path-1"></use>
                    </mask>
                    <g id="Clip-4"></g>
                    <path d="M294.601395,47.6305868 C292.077484,51.869777 280.875714,59.9444249 280.875714,59.9444249 C285.114527,49.0436502 292.381064,41.0707429 295.005091,39.1522066 C297.629119,37.2352852 297.123691,43.3913967 294.601395,47.6305868 M190.749663,36.1242136 C195.090208,29.6644953 194.786628,35.3167488 191.960753,43.5932629 C189.134877,51.869777 182.272037,59.1369601 182.272037,59.1369601 C179.951589,52.7789823 186.410733,42.5839319 190.749663,36.1242136 M137.12585,88.7095505 C132.551161,90.5941733 129.05192,88.9792437 129.05192,88.9792437 C131.608126,85.6153454 132.940325,85.0452753 129.589644,84.5381874 C126.697562,84.1021564 126.092018,86.153117 126.092018,86.153117 C122.862446,80.2311702 124.880928,72.2921764 124.880928,72.2921764 C126.763768,61.661095 136.048788,57.6221561 139.010305,65.698419 C141.970208,73.7714519 137.12585,88.7095505 137.12585,88.7095505 M122.726804,117.644244 C116.133632,124.643349 114.384819,120.470371 116.941025,112.261683 C119.497232,104.052996 127.033438,91.6713314 127.033438,91.6713314 C130.397037,93.5543392 135.914761,92.4787961 135.914761,92.4787961 C135.914761,92.4787961 129.321589,110.646754 122.726804,117.644244 M42.9305389,166.361824 C30.5499747,174.840205 36.0660837,157.883444 39.1632432,152.768962 C42.2571732,147.656095 57.5976401,129.89187 76.0336518,120.202292 C76.0336518,120.202292 55.3111031,157.883444 42.9305389,166.361824 M274.248632,62.4685598 C274.248632,62.4685598 266.040675,68.3888916 255.678593,79.1556271 C245.316512,89.9207477 236.436804,98.5347821 225.805053,110.377061 C215.173302,122.220954 210.73264,118.451709 211.136337,116.164968 C211.540033,113.876613 212.347426,106.743469 227.284196,85.6153454 C227.284196,85.6153454 230.379741,81.8460998 227.553866,80.7705567 C224.72799,79.6933987 220.421356,83.3269902 211.94373,94.6314973 C211.94373,94.6314973 196.73729,109.70525 186.914547,119.932599 C177.091804,130.159948 166.999391,133.929194 166.729722,129.756216 C166.461667,125.584852 168.383263,113.795867 184.896064,94.4974581 C184.896064,94.4974581 191.298691,86.9121339 188.664975,75.6560747 C186.309002,65.5966784 183.954644,61.661095 183.954644,61.661095 C183.954644,61.661095 191.894547,51.9715175 195.79587,41.2047821 C199.697193,30.4380466 192.70194,23.3049026 182.877582,38.5126945 C182.877582,38.5126945 176.418438,46.9910747 180.591045,61.5254409 C180.591045,61.5254409 170.63266,79.5577446 140.625091,87.7680466 C140.625091,87.7680466 145.873146,70.1394753 141.432484,62.4685598 C136.991823,54.7960294 122.055053,57.6221561 120.97799,76.5975787 C120.97799,76.5975787 120.440267,83.3269902 123.400169,88.5755114 C123.400169,88.5755114 120.674411,88.0377398 118.286142,92.4787961 C118.286142,92.4787961 99.5804611,105.667926 89.7593327,111.32018 C89.7593327,111.32018 103.485014,72.0224832 80.4743132,72.6959088 C80.4743132,72.6959088 117.614391,46.5873423 133.626609,23.3049026 C149.640442,0.024077831 138.06727,-3.07174217 123.937893,2.98424375 C109.808516,9.04022966 93.6606556,18.7298071 65.9412393,51.1640528 C38.2202082,83.5966835 35.1262782,88.8452046 35.1262782,88.8452046 C35.1262782,88.8452046 62.5776401,41.4744753 68.3634183,32.4567085 C74.1491965,23.4405567 85.7223677,9.98334854 84.2416089,5.81037051 C84.2416089,5.81037051 82.626823,2.31243304 74.8225623,10.3870809 C67.0183016,18.4617288 44.2756556,53.450793 27.8597412,86.5568494 C11.4422121,119.662906 -2.56928599,149.02717 0.400305447,151.840378 C3.3682821,154.653585 6.46382685,144.694314 8.21264008,140.522951 C9.96145331,136.351588 28.1277957,100.419405 41.3157529,84.4041483 C54.5037101,68.3888916 79.397251,38.5126945 97.4295661,22.2293595 C115.460267,5.94602459 140.355422,-1.7248909 132.415519,8.90619051 C124.477232,19.5372719 85.5883405,62.602599 75.0922315,71.7544049 C64.5961226,80.9045959 73.7455,78.3465474 76.167679,77.2710043 C78.589858,76.1938463 87.4711809,72.2921764 85.3186712,86.6908885 C83.1661615,101.091216 81.1379903,107.229563 77.3755389,115.869436 C77.3755389,115.869436 58.0013366,126.122624 44.0076012,142.27192 C30.012251,158.421216 27.7240992,186.41279 54.6377374,164.073469 C81.5513755,141.734148 89.0843521,114.280345 89.0843521,114.280345 C89.0843521,114.280345 111.155247,101.763026 116.671356,96.380466 C116.671356,96.380466 105.0998,116.164968 110.347854,121.277835 C115.595909,126.392317 124.477232,124.373655 132.954858,106.60943 C132.954858,106.60943 137.001512,97.3090505 139.686901,91.1271001 C139.686901,91.1271001 162.502212,88.2945136 181.840889,64.5485891 C181.840889,64.5485891 184.626395,71.2150184 184.35834,77.5406975 C184.088671,83.8647618 174.939294,94.361804 166.326025,106.879123 C157.714372,119.394827 156.637309,130.699334 162.962426,133.929194 C169.287543,137.159053 179.379955,130.56368 190.683457,118.855441 C201.985344,107.147201 207.099372,101.091216 210.328944,99.0725536 C210.328944,99.0725536 201.985344,114.414385 208.714158,119.528867 C215.442971,124.643349 230.917465,108.09032 235.358126,102.841799 C239.798788,97.5916632 264.963613,70.9469401 273.17157,65.8324581 C273.17157,65.8324581 267.116123,81.4423674 265.905033,99.6119401 C264.693944,117.779898 262.405792,142.27192 249.353477,139.98518 C249.353477,139.98518 245.854235,139.713871 243.701726,137.159053 C243.701726,137.159053 241.81727,139.042061 245.046842,142.407574 C248.276414,145.771472 259.310247,142.137881 263.213185,136.619666 C267.116123,131.103067 271.824839,122.489032 273.709294,95.9767336 C275.593749,69.4660497 280.30408,62.602599 280.30408,62.602599 C280.30408,62.602599 297.663029,52.6433283 298.604449,40.9350888 C299.54587,29.2268494 281.381142,37.8408837 274.248632,62.4685598" id="Fill-3" fill="#FFFFFF" mask="url(#mask-2)"></path>
                </g>
                <path d="M94.9387588,186.803441 C94.9387588,186.803441 97.1946148,176.987899 99.818642,176.758579 C102.442669,176.532489 104.864848,175.964034 103.653759,179.600855 C102.442669,183.239292 101.331696,186.535363 101.331696,186.535363 C101.331696,186.535363 107.690724,186.194613 110.920296,184.944657 C114.149868,183.693087 117.479556,184.148497 117.177591,185.966908 C116.874012,187.785319 116.268467,188.355389 116.268467,188.355389 C116.268467,188.355389 113.846288,187.444568 110.213019,188.355389 C106.579751,189.262979 100.222339,189.490684 100.222339,189.490684 C100.222339,189.490684 97.8001595,198.130557 98.1021245,201.087494 C98.1021245,201.087494 92.6344591,203.404917 92.1887782,200.995443 C91.7447121,198.585968 93.3272023,192.746382 94.2508599,189.640873 C94.2508599,189.640873 90.1299261,188.809184 86.3949261,189.946094 C82.6615409,191.083005 81.9542646,189.946094 80.8449066,188.013024 C79.7339339,186.081568 84.6800233,186.648408 87.7077471,186.535363 C90.7354708,186.422318 94.9387588,186.803441 94.9387588,186.803441" id="Fill-6" fill="#FFFFFF"></path>
                <path d="M347.283788,252.674965 C343.852368,253.886163 337.897037,254.289895 340.924761,247.830177 C344.209235,240.824612 356.063379,220.074382 364.137309,223.304241 C364.137309,223.304241 367.468613,224.615564 367.468613,230.67155 C367.468613,230.67155 361.816862,239.14993 358.081862,246.013381 C358.081862,246.013381 350.715208,251.463768 347.283788,252.674965 M195.695753,141.244825 C209.623282,132.362712 213.760364,138.520438 213.760364,138.520438 C216.989936,144.172692 208.993516,150.496756 202.760442,154.971726 C194.88836,160.62398 173.188866,166.983572 173.188866,166.983572 C173.188866,166.983572 181.768224,150.126937 195.695753,141.244825 M226.780383,198.069352 C234.854313,183.43486 252.011414,160.927586 254.83729,158.908924 C257.663165,156.890262 260.287193,159.412782 257.259469,170.717289 C254.231745,182.021796 239.193243,202.814015 230.817348,211.897994 C222.439839,220.981972 206.695675,237.029528 206.695675,237.029528 C207.201103,235.314472 218.706453,212.705458 226.780383,198.069352 M254.231745,220.074382 C258.570675,214.522254 262.305675,212.503592 263.113068,213.916656 C263.920461,215.329719 262.809488,217.550247 260.185461,221.587571 C257.561434,225.624895 245.854235,234.507008 245.854235,234.507008 C245.854235,234.507008 249.8912,225.624895 254.231745,220.074382 M413.086317,241.572325 C410.46229,240.361127 406.323593,242.581656 400.066298,245.811515 C393.809002,249.041374 388.662679,255.399352 383.010928,258.932818 C377.359177,262.464669 361.211317,268.320403 360.000228,260.95148 C358.789138,253.582556 371.909274,237.535001 375.844508,232.28648 C379.781356,227.037958 388.964644,218.761444 383.414625,216.944649 C377.86299,215.127853 377.964722,218.459452 374.835267,222.093044 C371.707426,225.726636 369.587212,228.349281 369.587212,228.349281 C369.587212,228.349281 370.698185,220.478114 363.128068,218.661319 C355.559566,216.844523 335.071161,229.762345 332.347018,250.354312 C332.347018,250.354312 321.345481,262.868401 314.48264,264.181339 C307.6198,265.492661 307.6198,261.153346 310.951103,254.188154 C314.280792,247.224578 323.263846,233.799669 323.667543,225.019296 C324.071239,216.238924 315.189916,218.559578 309.941862,221.587571 C304.693807,224.615564 297.931084,232.084613 295.307056,233.901409 C295.307056,233.901409 303.079021,222.698643 299.747718,217.248255 C296.418029,211.797868 290.56443,215.229593 286.82943,221.285579 C283.096045,227.33995 271.89266,239.250056 264.526006,245.811515 C257.157737,252.372974 245.350422,261.253471 241.615422,257.823361 C237.882037,254.390021 244.946726,237.938733 244.946726,237.938733 C244.946726,237.938733 261.396551,226.836092 264.827971,217.248255 C268.259391,207.658803 257.359586,210.283064 251.607718,215.229593 C245.854235,220.174508 239.900519,230.973542 237.174761,240.76486 C237.174761,240.76486 220.724936,256.914156 214.46764,262.262802 C208.210344,267.613064 200.347951,270.318071 201.649469,259.034558 C202.860558,248.535901 205.282737,242.783522 205.282737,242.783522 C205.282737,242.783522 239.698671,206.347481 249.689352,190.600302 C259.681648,174.854739 263.113068,163.24824 258.570675,156.586656 C254.029897,149.925071 233.74334,163.551847 216.989936,195.445091 C200.236531,227.33995 197.310539,245.307657 197.310539,245.307657 C197.310539,245.307657 181.464644,262.060936 168.849936,267.209332 C156.233613,272.357727 143.01336,271.650388 139.178243,258.832692 C135.343126,246.013381 141.296842,227.541816 148.563379,214.118522 C155.829916,200.693612 165.822212,198.473084 168.244391,197.76736 C170.66657,197.060021 175.107232,198.473084 173.592562,196.252556 C172.079508,194.032028 169.959294,196.252556 168.648088,195.243225 C167.335267,194.233894 160.977854,191.307641 172.281356,168.900494 C172.281356,168.900494 205.888282,160.321988 214.669488,145.989488 C223.44908,131.656988 202.65871,132.262586 190.447698,139.629895 C178.235072,146.998819 168.103905,154.8716 161.262056,167.285564 C161.262056,167.285564 146.646628,167.689296 139.078126,164.157445 C139.078126,164.157445 136.857796,162.946248 136.554216,164.661303 C136.252251,166.377974 140.187484,166.679965 142.306084,167.083698 C144.426298,167.48743 156.231998,169.594913 160.574158,169.347829 C160.574158,169.347829 150.985558,186.866585 165.620364,195.950564 C165.620364,195.950564 141.666628,203.254891 132.853126,223.877541 C124.039625,244.500192 129.389411,261.153346 138.169002,267.81493 C146.948593,274.476515 164.307543,273.972657 178.638768,264.281464 C178.638768,264.281464 189.336726,256.712289 196.099449,250.454437 C196.099449,250.454437 192.002737,266.214535 197.814352,270.237325 C204.375228,274.780121 217.495364,262.666535 221.026901,259.234809 C224.560053,255.803084 235.945909,244.726282 235.945909,244.726282 C235.945909,244.726282 232.128554,255.197485 239.395091,259.840408 C246.661628,264.483331 261.396551,250.556178 266.442757,246.013381 C271.488963,241.472199 283.297893,230.469684 287.434975,223.606233 C291.573671,216.742782 295.408788,215.531585 293.390305,220.276248 C291.371823,225.019296 289.453457,229.460353 282.994313,239.653788 C276.535169,249.848839 274.198574,256.818875 274.660403,259.389843 C275.122232,261.960811 280.370286,259.538416 281.279411,257.116022 C282.18692,254.693627 287.031278,244.298326 291.775519,240.059136 C296.518146,235.818331 304.887582,228.13934 307.923379,225.726636 C311.858613,222.596902 320.841667,219.568909 315.997309,228.451022 C315.997309,228.451022 305.5012,244.600318 302.97729,254.591887 C300.454994,264.585071 303.28087,269.42986 312.262309,267.714805 C321.245364,265.998134 332.623146,252.746022 332.623146,252.746022 C332.623146,252.746022 333.254527,256.510423 337.089644,256.914156 C340.378963,257.259751 349.604235,255.399352 355.559566,249.848839 C355.559566,249.848839 351.219021,257.419629 357.779897,264.181339 C364.339158,270.944664 380.386901,265.088929 390.983126,254.793753 C401.580967,244.500192 408.140228,244.600318 411.471531,243.894593 C414.802835,243.187254 415.710344,242.783522 413.086317,241.572325" id="Fill-8" fill="#FFFFFF"></path>
            </g>
        </g>
    </g>
</svg>